<?xml version="1.0" encoding="utf-8"?>
<!-- Generator: Adobe Illustrator 16.0.0, SVG Export Plug-In . SVG Version: 6.00 Build 0)  -->
<!DOCTYPE svg PUBLIC "-//W3C//DTD SVG 1.1//EN" "http://www.w3.org/Graphics/SVG/1.1/DTD/svg11.dtd">
<svg version="1.1" id="Layer_1" xmlns="http://www.w3.org/2000/svg" xmlns:xlink="http://www.w3.org/1999/xlink" x="0px" y="0px"
	 width="311.811px" height="56.693px" viewBox="0 0 311.811 56.693" enable-background="new 0 0 311.811 56.693"
	 xml:space="preserve">
<g>
	
		<linearGradient id="SVGID_1_" gradientUnits="userSpaceOnUse" x1="188.3752" y1="38.6306" x2="219.6379" y2="38.6306" gradientTransform="matrix(0.9977 -0.0685 -0.0685 -0.9977 33.4789 78.6078)">
		<stop  offset="0" style="stop-color:#FFFFFF"/>
		<stop  offset="1" style="stop-color:#C25A1A"/>
	</linearGradient>
	<path fill="url(#SVGID_1_)" d="M238.232,17.069c-1.647-3.734-2.984-6.746-7.039-8.294c-3.583-1.365-6.499-1.702-9.567,1.017
		c-2.607,2.314-4.072,7.088-3.189,10.496c0.915,3.53,3.726,6.359,4.278,10.01c0.78,5.219-0.551,10.672-2.205,15.648
		c3.358-3.197,7.675-8.467,12.407-9.455c1.67-0.342,3.423-0.33,5.123-0.65c3.635-0.699,7.668-1.314,9.827-4.727
		c4.104-6.48,1.281-10.625-1.306-12.738c-5.03-4.104-12.316,0.853-12.316,0.853"/>
	<g>
		<path d="M238.29,16.023c-2.374-5.332-5.228-8.622-11.343-9.323c-5.542-0.636-8.395,5.789-8.722,10.251
			c-0.109,1.504-0.116,2.873,0.149,4.381c0.526,2.978,2.818,5.695,3.916,8.492c1.833,4.672-0.267,10.527-1.726,15.078
			c-0.145,0.445,0.188,1.793-0.117,2.092c2.439-2.387,4.761-4.855,7.438-6.984c3.445-2.744,7.354-2.596,11.472-3.387
			c5.853-1.125,10.154-4.318,10.549-10.694c0.573-9.27-8.271-12.549-15.604-7.746c-0.357,0.233,0.219,1.871-0.117,2.092
			c6.208-4.065,15.534-2.688,15.682,6.135c0.039-0.685,0.078-1.369,0.118-2.054c-1.014,7.699-6.774,9.738-13.601,10.675
			c-7.179,0.982-10.808,4.971-15.818,9.871c-0.039,0.695-0.078,1.395-0.117,2.092c1.278-3.986,2.256-7.98,2.456-12.164
			c0.116-2.43,0.078-4.695-0.496-7.098c-0.945-3.95-4.017-6.654-4.17-10.922c-0.037,0.685-0.075,1.368-0.112,2.054
			c0.479-5.66,3.908-10.623,10.08-9.914c5.377,0.617,7.974,4.688,9.966,9.166C237.924,17.553,238.545,16.596,238.29,16.023
			L238.29,16.023z"/>
	</g>
</g>
<g>
	<path d="M84.156,32.673v-10.91h3.684c1.486,0,2.662,0.224,3.527,0.669s1.553,1.102,2.064,1.967c0.511,0.865,0.767,1.81,0.767,2.831
		c0,0.729-0.141,1.429-0.422,2.095c-0.281,0.668-0.683,1.254-1.205,1.76c-0.531,0.521-1.149,0.916-1.854,1.182
		c-0.412,0.162-0.79,0.27-1.134,0.324c-0.345,0.055-1.001,0.082-1.971,0.082H84.156z M87.677,23.156h-1.955v8.125h2.002
		c0.781,0,1.389-0.053,1.821-0.158c0.434-0.105,0.794-0.244,1.083-0.408c0.29-0.164,0.555-0.365,0.794-0.604
		c0.772-0.783,1.158-1.772,1.158-2.964c0-1.174-0.396-2.129-1.188-2.87c-0.292-0.276-0.627-0.503-1.005-0.682
		c-0.378-0.177-0.736-0.294-1.076-0.352S88.427,23.156,87.677,23.156z"/>
	<path d="M102.089,29.216h-5.06c0.036,0.689,0.268,1.236,0.692,1.645c0.425,0.404,0.973,0.607,1.646,0.607
		c0.939,0,1.805-0.291,2.597-0.875v1.393c-0.438,0.291-0.871,0.5-1.302,0.625c-0.43,0.125-0.935,0.188-1.513,0.188
		c-0.792,0-1.435-0.164-1.924-0.49c-0.49-0.328-0.883-0.771-1.178-1.326c-0.294-0.557-0.44-1.197-0.44-1.93
		c0-1.093,0.31-1.984,0.93-2.669c0.621-0.686,1.426-1.028,2.417-1.028c0.954,0,1.715,0.334,2.284,1.001
		c0.568,0.668,0.853,1.561,0.853,2.681v0.18H102.089z M97.061,28.364h3.62c-0.037-0.568-0.206-1.006-0.509-1.314
		c-0.302-0.307-0.708-0.461-1.22-0.461s-0.929,0.154-1.255,0.461C97.371,27.358,97.159,27.795,97.061,28.364z"/>
	<path d="M114.454,21.763h1.955l-4.739,5.186l5.904,5.74h-2.135l-5.584-5.396v5.396h-1.564V21.763h1.564v4.997L114.454,21.763z"/>
	<path d="M120.108,25.493v1.65l0.079-0.125c0.688-1.11,1.375-1.666,2.063-1.666c0.537,0,1.098,0.271,1.683,0.812l-0.751,1.251
		c-0.495-0.47-0.954-0.704-1.376-0.704c-0.458,0-0.856,0.22-1.192,0.657c-0.336,0.438-0.504,0.957-0.504,1.555v3.764h-1.431v-7.196
		L120.108,25.493L120.108,25.493z"/>
	<path d="M129.446,28.364v3.057c0,0.246,0.083,0.369,0.25,0.369c0.172,0,0.441-0.129,0.806-0.385v0.869
		c-0.322,0.209-0.583,0.352-0.777,0.426c-0.196,0.074-0.4,0.113-0.614,0.113c-0.61,0-0.97-0.24-1.079-0.721
		c-0.604,0.471-1.25,0.703-1.932,0.703c-0.5,0-0.918-0.166-1.251-0.496c-0.334-0.33-0.5-0.746-0.5-1.248
		c0-0.451,0.163-0.857,0.488-1.215c0.325-0.355,0.789-0.641,1.389-0.85l1.821-0.625v-0.384c0-0.865-0.433-1.299-1.298-1.299
		c-0.776,0-1.533,0.401-2.268,1.205v-1.557c0.552-0.651,1.347-0.978,2.385-0.978c0.777,0,1.399,0.203,1.869,0.609
		c0.156,0.13,0.297,0.304,0.422,0.521s0.204,0.433,0.238,0.648C129.429,27.349,129.446,27.758,129.446,28.364z M128.045,31.264
		V29.13l-0.954,0.367c-0.484,0.193-0.826,0.389-1.027,0.584c-0.202,0.195-0.302,0.439-0.302,0.73c0,0.297,0.095,0.539,0.285,0.727
		s0.438,0.281,0.739,0.281C127.24,31.819,127.659,31.635,128.045,31.264z"/>
	<path d="M137.156,31.007v1.408c-0.715,0.266-1.413,0.398-2.096,0.398c-1.126,0-2.024-0.334-2.694-1
		c-0.67-0.668-1.004-1.562-1.004-2.686c0-1.13,0.326-2.042,0.978-2.735c0.651-0.694,1.51-1.041,2.573-1.041
		c0.37,0,0.703,0.034,0.997,0.104c0.294,0.071,0.658,0.203,1.091,0.396v1.518c-0.719-0.459-1.387-0.688-2.002-0.688
		c-0.642,0-1.168,0.225-1.58,0.677c-0.412,0.451-0.617,1.023-0.617,1.724c0,0.734,0.223,1.32,0.669,1.752
		c0.444,0.434,1.046,0.65,1.803,0.65C135.82,31.485,136.448,31.325,137.156,31.007z"/>
	<path d="M138.743,21.763h1.424v4.678c0.595-0.726,1.332-1.087,2.213-1.087c0.479,0,0.91,0.12,1.291,0.359
		c0.381,0.24,0.663,0.571,0.85,0.993c0.185,0.422,0.276,1.051,0.276,1.885v4.099h-1.423v-4.45c0-0.527-0.129-0.951-0.387-1.271
		s-0.598-0.48-1.021-0.48c-0.312,0-0.606,0.081-0.884,0.242c-0.275,0.162-0.582,0.43-0.915,0.806v5.154h-1.424V21.763z"/>
	<path d="M145.775,26.635l2.674-2.627v1.485h2.275v1.283h-2.275v3.521c0,0.822,0.342,1.234,1.024,1.234
		c0.511,0,1.05-0.172,1.62-0.51v1.33c-0.549,0.309-1.146,0.461-1.793,0.461c-0.65,0-1.192-0.189-1.626-0.57
		c-0.135-0.115-0.246-0.244-0.335-0.389s-0.162-0.33-0.223-0.562c-0.06-0.23-0.09-0.674-0.09-1.324v-3.191h-1.251L145.775,26.635
		L145.775,26.635z"/>
	<path d="M160.976,25.493h1.543l-3.179,7.322h-0.48l-3.254-7.322h1.557l1.942,4.427L160.976,25.493z"/>
	<path d="M168.102,28.364v3.057c0,0.246,0.083,0.369,0.251,0.369c0.171,0,0.439-0.129,0.805-0.385v0.869
		c-0.323,0.209-0.582,0.352-0.778,0.426c-0.195,0.074-0.399,0.113-0.613,0.113c-0.61,0-0.97-0.24-1.08-0.721
		c-0.604,0.471-1.249,0.703-1.933,0.703c-0.5,0-0.917-0.166-1.251-0.496c-0.333-0.33-0.5-0.746-0.5-1.248
		c0-0.451,0.162-0.857,0.488-1.215c0.326-0.355,0.789-0.641,1.388-0.85l1.823-0.625v-0.384c0-0.865-0.433-1.299-1.299-1.299
		c-0.777,0-1.532,0.401-2.267,1.205v-1.557c0.553-0.651,1.347-0.978,2.385-0.978c0.776,0,1.399,0.203,1.869,0.609
		c0.155,0.13,0.297,0.304,0.422,0.521c0.126,0.217,0.205,0.433,0.237,0.648C168.085,27.349,168.102,27.758,168.102,28.364z
		 M166.703,31.264V29.13l-0.954,0.367c-0.485,0.193-0.829,0.389-1.028,0.584c-0.2,0.195-0.301,0.439-0.301,0.73
		c0,0.297,0.096,0.539,0.285,0.727c0.19,0.188,0.438,0.281,0.739,0.281C165.897,31.819,166.317,31.635,166.703,31.264z"/>
	<path d="M171.84,25.493v0.916c0.636-0.704,1.358-1.056,2.165-1.056c0.448,0,0.866,0.115,1.252,0.348s0.68,0.55,0.88,0.954
		s0.301,1.044,0.301,1.919v4.114h-1.423V28.59c0-0.734-0.111-1.26-0.335-1.576c-0.227-0.314-0.601-0.473-1.127-0.473
		c-0.673,0-1.244,0.336-1.713,1.008v5.139h-1.454v-7.196L171.84,25.493L171.84,25.493z"/>
	<path d="M182.845,21.763h1.422v4.678c0.594-0.726,1.333-1.087,2.213-1.087c0.479,0,0.911,0.12,1.291,0.359
		c0.38,0.24,0.664,0.571,0.847,0.993c0.186,0.422,0.279,1.051,0.279,1.885v4.099h-1.425v-4.45c0-0.527-0.129-0.951-0.388-1.271
		c-0.258-0.32-0.599-0.48-1.019-0.48c-0.314,0-0.608,0.081-0.885,0.242c-0.277,0.162-0.582,0.43-0.916,0.806v5.154h-1.422V21.763
		H182.845z"/>
	<path d="M197.014,29.216h-5.059c0.035,0.689,0.267,1.236,0.69,1.645c0.425,0.404,0.974,0.607,1.646,0.607
		c0.938,0,1.804-0.291,2.597-0.875v1.393c-0.439,0.291-0.871,0.5-1.304,0.625c-0.43,0.125-0.935,0.188-1.512,0.188
		c-0.793,0-1.434-0.164-1.925-0.49c-0.49-0.328-0.882-0.771-1.178-1.326c-0.293-0.557-0.441-1.197-0.441-1.93
		c0-1.093,0.31-1.984,0.932-2.669c0.62-0.686,1.425-1.028,2.415-1.028c0.956,0,1.717,0.334,2.284,1.001
		c0.567,0.668,0.853,1.561,0.853,2.681L197.014,29.216L197.014,29.216z M191.986,28.364h3.622c-0.038-0.568-0.207-1.006-0.51-1.314
		c-0.304-0.307-0.709-0.461-1.222-0.461c-0.509,0-0.929,0.154-1.255,0.461C192.298,27.358,192.084,27.795,191.986,28.364z"/>
	<path d="M197.546,26.635l2.674-2.627v1.485h2.276v1.283h-2.276v3.521c0,0.822,0.343,1.234,1.025,1.234
		c0.509,0,1.049-0.172,1.619-0.51v1.33c-0.55,0.309-1.146,0.461-1.793,0.461c-0.65,0-1.192-0.189-1.627-0.57
		c-0.134-0.115-0.246-0.244-0.336-0.389c-0.089-0.145-0.161-0.33-0.223-0.562c-0.06-0.23-0.09-0.674-0.09-1.324v-3.191h-1.251
		L197.546,26.635L197.546,26.635z"/>
	<path d="M211.239,28.111l-1.188-0.723c-0.746-0.455-1.276-0.902-1.592-1.344c-0.316-0.439-0.475-0.948-0.475-1.521
		c0-0.86,0.298-1.56,0.896-2.096s1.371-0.806,2.326-0.806c0.913,0,1.748,0.256,2.513,0.769v1.774
		c-0.789-0.757-1.638-1.136-2.542-1.136c-0.513,0-0.934,0.118-1.262,0.354c-0.328,0.236-0.493,0.539-0.493,0.907
		c0,0.328,0.122,0.634,0.364,0.919c0.241,0.286,0.631,0.586,1.166,0.9l1.195,0.707c1.333,0.796,1.999,1.809,1.999,3.04
		c0,0.875-0.293,1.586-0.88,2.135c-0.587,0.547-1.351,0.822-2.288,0.822c-1.08,0-2.062-0.332-2.948-0.996v-1.986
		c0.845,1.07,1.821,1.605,2.934,1.605c0.488,0,0.896-0.137,1.224-0.41c0.327-0.271,0.487-0.613,0.487-1.023
		C212.678,29.339,212.198,28.707,211.239,28.111z"/>
	<path d="M220.089,25.493h1.6l-5.099,10.863h-1.589l2.443-5.213l-2.779-5.65h1.622l1.943,4.064L220.089,25.493z"/>
	<path d="M222.338,32.173v-1.533c0.401,0.281,0.812,0.51,1.229,0.684c0.42,0.176,0.773,0.262,1.061,0.262
		c0.3,0,0.553-0.072,0.767-0.217c0.216-0.146,0.32-0.32,0.32-0.525c0-0.207-0.067-0.381-0.205-0.52
		c-0.14-0.139-0.438-0.336-0.896-0.598c-0.918-0.512-1.519-0.948-1.803-1.311s-0.425-0.757-0.425-1.185
		c0-0.554,0.213-1.003,0.646-1.354c0.43-0.349,0.983-0.523,1.661-0.523c0.702,0,1.425,0.197,2.167,0.594v1.408
		c-0.846-0.511-1.538-0.767-2.073-0.767c-0.275,0-0.499,0.06-0.669,0.177c-0.171,0.117-0.256,0.272-0.256,0.466
		c0,0.167,0.078,0.327,0.23,0.478c0.154,0.152,0.425,0.333,0.81,0.546l0.51,0.29c1.199,0.679,1.798,1.429,1.798,2.251
		c0,0.59-0.229,1.074-0.689,1.451c-0.462,0.379-1.057,0.566-1.779,0.566c-0.429,0-0.81-0.045-1.143-0.139
		C223.265,32.583,222.843,32.417,222.338,32.173z"/>
	<path d="M227.843,26.635l2.675-2.627v1.485h2.273v1.283h-2.273v3.521c0,0.822,0.341,1.234,1.022,1.234
		c0.513,0,1.053-0.172,1.62-0.51v1.33c-0.547,0.309-1.146,0.461-1.791,0.461c-0.651,0-1.193-0.189-1.627-0.57
		c-0.136-0.115-0.248-0.244-0.335-0.389c-0.09-0.145-0.165-0.33-0.224-0.562c-0.062-0.23-0.091-0.674-0.091-1.324v-3.191h-1.252
		v-0.142H227.843z"/>
	<path d="M240.317,29.216h-5.062c0.037,0.689,0.269,1.236,0.692,1.645c0.425,0.404,0.974,0.607,1.646,0.607
		c0.938,0,1.805-0.291,2.598-0.875v1.393c-0.438,0.291-0.873,0.5-1.303,0.625s-0.935,0.188-1.515,0.188
		c-0.793,0-1.434-0.164-1.925-0.49c-0.488-0.328-0.882-0.771-1.176-1.326c-0.296-0.557-0.441-1.197-0.441-1.93
		c0-1.093,0.312-1.984,0.931-2.669s1.427-1.028,2.418-1.028c0.951,0,1.716,0.334,2.282,1.001c0.568,0.668,0.854,1.561,0.854,2.681
		V29.216L240.317,29.216z M235.286,28.364h3.622c-0.035-0.568-0.207-1.006-0.508-1.314c-0.303-0.307-0.711-0.461-1.22-0.461
		c-0.513,0-0.931,0.154-1.257,0.461C235.6,27.358,235.389,27.795,235.286,28.364z"/>
	<path d="M247.987,29.216h-5.058c0.034,0.689,0.265,1.236,0.688,1.645c0.425,0.404,0.975,0.607,1.647,0.607
		c0.938,0,1.803-0.291,2.596-0.875v1.393c-0.438,0.291-0.87,0.5-1.302,0.625c-0.431,0.125-0.936,0.188-1.513,0.188
		c-0.794,0-1.435-0.164-1.925-0.49c-0.49-0.328-0.883-0.771-1.178-1.326c-0.294-0.557-0.441-1.197-0.441-1.93
		c0-1.093,0.311-1.984,0.933-2.669c0.619-0.686,1.425-1.028,2.415-1.028c0.955,0,1.716,0.334,2.282,1.001
		c0.568,0.668,0.854,1.561,0.854,2.681L247.987,29.216L247.987,29.216z M242.959,28.364h3.621c-0.037-0.568-0.206-1.006-0.509-1.314
		c-0.303-0.307-0.709-0.461-1.221-0.461c-0.511,0-0.931,0.154-1.256,0.461C243.271,27.358,243.059,27.795,242.959,28.364z"/>
	<path d="M255.424,27.464v5.224h-1.432v-4.003c0-0.798-0.104-1.354-0.319-1.671c-0.216-0.314-0.587-0.473-1.118-0.473
		c-0.299,0-0.57,0.068-0.817,0.204c-0.248,0.135-0.53,0.375-0.85,0.719v5.224h-1.423v-7.195h1.423v0.947
		c0.726-0.726,1.435-1.087,2.129-1.087c0.911,0,1.617,0.433,2.12,1.298c0.76-0.876,1.556-1.313,2.384-1.313
		c0.7,0,1.271,0.255,1.726,0.767c0.45,0.511,0.676,1.291,0.676,2.338v4.246h-1.425v-4.262c0-0.6-0.122-1.058-0.366-1.377
		c-0.245-0.316-0.599-0.477-1.056-0.477C256.485,26.573,255.936,26.87,255.424,27.464z"/>
</g>
</svg>
