<svg width="129" height="133" viewBox="0 0 129 133" fill="none" xmlns="http://www.w3.org/2000/svg">
<path d="M1.18652 132.367L10.4176 97.9198C3.77264 87.2916 0.442434 75.0238 0.78583 62.4057C1.23043 
46.0322 7.93752 30.6069 19.671 18.9721C31.405 7.33807 46.886 0.761285 63.2633 0.448086C63.6792 
0.439012 64.0875 0.4375 64.4989 0.4375C99.4099 0.4375 128.006 28.8364 128.234 63.7431C128.469 
98.7915 100.154 127.579 65.1183 127.912L64.4968 127.914C55.4306 127.914 46.6777 126.049 38.4718 
122.374L1.18652 132.367ZM64.4999 3.03769C64.1037 3.03769 63.7105 3.04222 63.3143 3.04827C30.596 
3.66832 4.27495 29.7716 3.38452 62.4747C3.05031 74.7649 6.34857 86.706 12.9179 97.0059L13.2264 
97.4898L4.86646 128.688L38.7051 119.622L39.13 119.817C47.1164 123.466 55.6549 125.316 64.5015 
125.316L65.0973 125.314C98.7033 124.994 125.859 97.3795 125.635 63.7623C125.413 30.2776 97.9874 
3.03898 64.5011 3.03898L64.4999 3.03769Z" fill="#888b7e" />
</svg>
